HIERARCHY
ROOT Bip001_Pelvis
{
  OFFSET 33.2923 95.8902 -28.781
  CHANNELS 6 Xposition Yposition Zposition Zrotation Xrotation Yrotation
  JOINT Bip001_Spine
  {
    OFFSET 1.4188e-005 10.2191 -0.0116013
    CHANNELS 3 Zrotation Xrotation Yrotation
    JOINT Bip001_L_Thigh
    {
      OFFSET 11.0458 -10.2192 0.0116197
      CHANNELS 3 Zrotation Xrotation Yrotation
      JOINT Bip001_L_Calf
      {
        OFFSET -0.707118 -44.0221 0.360014
        CHANNELS 3 Zrotation Xrotation Yrotation
        JOINT Bip001_L_Foot
        {
          OFFSET -0.651902 -40.5938 -3.56146
          CHANNELS 3 Zrotation Xrotation Yrotation
          JOINT Bip001_L_Toe0
          {
            OFFSET 0.0530839 -10.2181 13.1504
            CHANNELS 3 Zrotation Xrotation Yrotation
            End Site
            {
              OFFSET -1.02532e-005 0 7.55606
            }
          }
        }
      }
    }
    JOINT Bip001_R_Thigh
    {
      OFFSET -11.0458 -10.2191 0.0115893
      CHANNELS 3 Zrotation Xrotation Yrotation
      JOINT Bip001_R_Calf
      {
        OFFSET 0.706994 -44.0221 0.35984
        CHANNELS 3 Zrotation Xrotation Yrotation
        JOINT Bip001_R_Foot
        {
          OFFSET 0.651786 -40.5938 -3.5613
          CHANNELS 3 Zrotation Xrotation Yrotation
          JOINT Bip001_R_Toe0
          {
            OFFSET -0.0531479 -10.2181 13.1504
            CHANNELS 3 Zrotation Xrotation Yrotation
            End Site
            {
              OFFSET -1.02894e-005 0 7.55606
            }
          }
        }
      }
    }
    JOINT Bip001_Spine1
    {
      OFFSET 1.87041e-005 14.5736 1.08638
      CHANNELS 3 Zrotation Xrotation Yrotation
      JOINT Bip001_Spine2
      {
        OFFSET 2.24614e-005 14.5058 -1.69078
        CHANNELS 3 Zrotation Xrotation Yrotation
        JOINT Bip001_Neck
        {
          OFFSET 2.20278e-005 15.3945 -0.489414
          CHANNELS 3 Zrotation Xrotation Yrotation
          JOINT Bip001_L_Clavicle
          {
            OFFSET 6.06036 -0.000579998 0.00836775
            CHANNELS 3 Zrotation Xrotation Yrotation
            JOINT Bip001_L_UpperArm
            {
              OFFSET 11.5509 -0.0600302 0.00193952
              CHANNELS 3 Zrotation Xrotation Yrotation
              JOINT Bip001_L_Forearm
              {
                OFFSET 25.9523 0.0806089 -2.15551
                CHANNELS 3 Zrotation Xrotation Yrotation
                JOINT Bip001_L_Hand
                {
                  OFFSET 32.2476 0.153767 1.63968
                  CHANNELS 3 Zrotation Xrotation Yrotation
                  JOINT Bip001_L_Finger0
                  {
                    OFFSET 6.04639 -2.20976 5.90322
                    CHANNELS 3 Zrotation Xrotation Yrotation
                    End Site
                    {
                      OFFSET 4.22376 -1.43895 0.606486
                    }
                  }
                  JOINT Bip001_L_Finger1
                  {
                    OFFSET 11.0826 -0.704819 -0.198153
                    CHANNELS 3 Zrotation Xrotation Yrotation
                    End Site
                    {
                      OFFSET 6.20028 -0.397518 -0.0787166
                    }
                  }
                }
              }
            }
          }
          JOINT Bip001_R_Clavicle
          {
            OFFSET -6.06036 -0.000563197 0.00835105
            CHANNELS 3 Zrotation Xrotation Yrotation
            JOINT Bip001_R_UpperArm
            {
              OFFSET -11.5509 -0.0599978 0.00190698
              CHANNELS 3 Zrotation Xrotation Yrotation
              JOINT Bip001_R_Forearm
              {
                OFFSET -25.9523 0.080682 -2.1559
                CHANNELS 3 Zrotation Xrotation Yrotation
                JOINT Bip001_R_Hand
                {
                  OFFSET -32.2476 0.153858 1.63991
                  CHANNELS 3 Zrotation Xrotation Yrotation
                  JOINT Bip001_R_Finger0
                  {
                    OFFSET -6.04641 -2.20974 5.90321
                    CHANNELS 3 Zrotation Xrotation Yrotation
                    End Site
                    {
                      OFFSET -4.22376 -1.43894 0.606474
                    }
                  }
                  JOINT Bip001_R_Finger1
                  {
                    OFFSET -11.0826 -0.704789 -0.198184
                    CHANNELS 3 Zrotation Xrotation Yrotation
                    End Site
                    {
                      OFFSET -6.20028 -0.397501 -0.0787338
                    }
                  }
                }
              }
            }
          }
          JOINT Bip001_Head
          {
            OFFSET 1.09673e-005 11.2744 2.05948
            CHANNELS 3 Zrotation Xrotation Yrotation
            End Site
            {
              OFFSET 2.89576e-005 20.8808 -2.77728e-005
            }
          }
        }
      }
    }
  }
}
MOTION
Frames:	5
Frame Time:	0.04
31.7153 95.8953 -28.3661 0.686494 -1.55711 2.34732 0.0818507 3.42612 0.127938 5.41087 -3.3164 8.01441 -0.509784 7.53292 -13.4663 1.87106 -3.53348 -0.0341284 -3.95712 -2.85712 5.63734 -2.8442 -2.98474 -1.10157 0.128103 10.5485 -0.167921 -6.01589 -10.0073 1.01678 1.92207 -6.89889 2.40114 0.151012 6.86138 0.253732 0.151012 6.86141 0.253733 5.25265 0.987562 -6.56537 -28.0624 -0.193937 -4.08067 -48.0878 40.2849 -3.01026 11.7175 -1.23762 -26.4946 7.88701 0.803641 -2.33623 -0 -6.36111e-015 -0 -3.18055e-015 -3.18056e-015 1.59028e-015 26.388 5.16748 10.9783 49.2032 40.2775 0.19675 -8.07083 12.7578 6.88065 -3.46907 1.00151 4.99443 4.96962e-017 -3.18055e-015 -4.22417e-016 1.49088e-016 -6.36111e-015 -6.95746e-016 -4.30726 15.6035 -3.22649 
31.7111 95.8939 -28.41 0.576716 -1.53992 2.04721 0.079633 3.42612 0.165048 5.49339 -3.3655 8.03896 -0.495365 7.64369 -13.2542 2.03258 -3.50165 -0.0341272 -3.88955 -2.94044 5.57701 -2.7686 -3.05588 -0.693861 0.225347 10.4742 -0.136953 -6.05992 -9.90538 0.856264 1.9215 -6.88547 2.40108 0.167347 6.86133 0.325746 0.1677 6.86136 0.325719 5.31728 0.89231 -6.59598 -28.1619 -0.0826265 -4.17954 -48.1646 40.4741 -2.77614 11.6926 -1.29575 -26.2094 7.75907 0.788872 -2.25604 -8.82781e-032 -3.18055e-015 -1.59028e-015 -0 -3.18056e-015 -0 26.541 5.4012 11.2099 47.7397 41.379 1.84714 -8.40801 11.6874 6.91835 -3.42611 1.36141 4.45565 -5.96354e-016 -6.36111e-015 -1.49088e-015 -6.62086e-032 -3.18056e-015 -1.19271e-015 -4.30381 15.6943 -3.23807 
31.7544 95.8938 -28.427 0.594409 -1.50885 1.86673 0.0785198 3.42612 0.184165 5.36886 -3.33349 7.96364 -0.392013 7.56453 -13.0933 2.29827 -3.30117 -0.0377522 -3.77085 -3.09812 5.48273 -2.87582 -3.14611 -0.327549 0.410236 10.5286 -0.0802414 -6.10615 -9.88081 0.605975 1.91028 -6.82516 2.36904 0.141339 6.84037 0.364619 0.141355 6.84038 0.364703 5.47169 0.908836 -6.72101 -28.3609 -0.09921 -4.33198 -48.1968 40.613 -2.56765 11.5387 -1.56208 -25.9172 7.77203 0.947968 -2.09671 -3.18055e-015 3.18055e-015 -0 0 0 -1.59028e-015 26.7223 5.66941 11.7695 45.2053 43.1034 4.35027 -8.68911 10.4053 6.80831 -3.43269 1.78346 3.85679 -1.19271e-015 -3.18055e-015 1.98785e-016 -3.97569e-016 -3.18056e-015 9.93923e-016 -4.50273 15.6608 -3.24394 
31.7766 95.8839 -28.4345 0.551262 -1.55727 1.69433 0.0789779 3.43304 0.188823 5.33756 -3.3187 8.01542 -0.301119 7.64891 -13.0485 2.48781 -3.23396 -0.0405753 -3.72799 -3.25197 5.48739 -2.88487 -3.14207 -0.00858966 0.510628 10.528 -0.00577257 -6.16615 -9.86519 0.429119 1.89704 -6.76136 2.33256 0.144588 6.86553 0.37265 0.144898 6.86556 0.372899 5.45126 0.745273 -6.73936 -28.3783 0.058251 -4.30803 -48.1624 40.6267 -2.56129 11.5423 -1.46951 -25.6488 7.71892 0.898919 -2.07198 6.36111e-015 6.36111e-015 -3.18055e-015 3.18055e-015 9.54167e-015 -0 26.6655 6.06963 12.3667 42.4195 44.847 7.17616 -9.40919 8.75875 7.25627 -3.27342 2.36211 3.2282 7.95139e-016 -3.18055e-015 -0 7.95139e-016 -3.18056e-015 -3.97569e-016 -4.56966 15.7812 -3.2489 
31.7449 95.8985 -28.563 0.337068 -1.38878 1.60442 0.108395 3.40305 0.181243 5.55099 -3.65491 6.45856 -0.507798 7.86804 -11.3687 2.448 -3.28455 -0.0431319 -3.75566 -3.20905 5.48554 -2.6747 -3.29369 0.541972 0.590579 10.2951 -0.0235938 -6.2697 -9.57513 0.0474962 1.89084 -6.73722 2.31131 0.206897 6.80641 0.356535 0.206742 6.80643 0.356412 5.35494 0.591961 -6.70671 -28.2896 0.22534 -4.28575 -48.0881 40.6162 -2.61196 11.589 -1.35362 -25.5015 7.58655 0.823463 -2.07428 -6.36111e-015 3.18055e-015 -3.18055e-015 -3.18055e-015 9.54167e-015 -1.59028e-015 26.5682 6.47358 13.063 39.4195 45.4076 10.2338 -10.2785 6.98884 8.10129 -3.49516 2.6758 2.62702 -1.59028e-015 9.54166e-015 1.59028e-015 -3.18055e-015 9.54167e-015 1.19271e-015 -4.52709 15.8754 -3.25349 
